<?xml version="1.0" encoding="utf-8"?>
<svg version="1.1" id="Layer_1"
xmlns="http://www.w3.org/2000/svg"
xmlns:xlink="http://www.w3.org/1999/xlink"
xmlns:author="http://www.sothink.com"
width="25px" height="40px"
xml:space="preserve">
<g id="14" transform="matrix(1, 0, 0, 1, 12.55, 19.85)">
<path style="fill:#F7931E;fill-opacity:1" d="M-4.15,-7.4Q-8.05 -5.35 -11.9 -3.4L-5.8 -9.8L-12.45 -10.5L-5.55 -12.7L-9.4 -19.75L-3.1 -13.7L-0.7 -18.5L-0.8 -13.6L4.85 -17.45L1 -11.85Q3.9 -10.75 6.8 -9.8L1.4 -9L4.95 -5.65Q2.5 -6.4 0.1 -7.3L-0.25 -1.65L-2.1 -6.1L-4.15 -7.4" />
<path style="fill:none;stroke-width:0.2;stroke-linecap:round;stroke-linejoin:round;stroke-miterlimit:3;stroke:#000000;stroke-opacity:1" d="M-4.15,-7.4Q-8.05 -5.35 -11.9 -3.4L-5.8 -9.8L-12.45 -10.5L-5.55 -12.7L-9.4 -19.75L-3.1 -13.7L-0.7 -18.5L-0.8 -13.6L4.85 -17.45L1 -11.85Q3.9 -10.75 6.8 -9.8L1.4 -9L4.95 -5.65Q2.5 -6.4 0.1 -7.3L-0.25 -1.65L-2.1 -6.1" />
<path style="fill:#FFF200;fill-opacity:1" d="M-1.75,-7.75L-3.1 -9L-7.5 -6.75L-4.1 -10.5L-8.1 -10.75L-4.2 -11.75L-6.7 -15.9L-2.8 -12.15L-1.55 -14.8L-1.45 -12.05L1.75 -13.95L-0.25 -11.15L3.3 -10.05L0.1 -9.3L2.3 -7.3L-0.6 -8.4L-0.6 -4.3L-1.75 -7.75" />
<path style="fill:none;stroke-width:0.2;stroke-linecap:round;stroke-linejoin:round;stroke-miterlimit:3;stroke:#ED1C24;stroke-opacity:1" d="M-3.1,-9L-7.5 -6.75L-4.1 -10.5L-8.1 -10.75L-4.2 -11.75L-6.7 -15.9L-2.8 -12.15L-1.55 -14.8L-1.45 -12.05L1.75 -13.95L-0.25 -11.15L3.3 -10.05L0.1 -9.3L2.3 -7.3L-0.6 -8.4L-0.6 -4.3L-1.75 -7.75" />
<path style="fill:#000000;fill-opacity:1" d="M11.75,14.15Q10.3 17.45 7.1 18.9Q3.95 20.35 0.5 19.3Q-2.9 18.35 -4.8 14.45Q-6.2 11.05 -5.7 8.7Q-5.15 6.3 -4.05 5L-2.85 3.75L-4.15 0.8L0.9 -1.5L2.25 1.4L4 1.3Q5.65 1.4 7.75 2.55Q9.95 3.7 11.6 7Q13.25 10.95 11.75 14.15" />
<path style="fill:none;stroke-width:0.7;stroke-linecap:round;stroke-linejoin:round;stroke-miterlimit:3;stroke:#000000;stroke-opacity:1" d="M-0.8,0.35L-1.7 -1.75Q-2.5 -3.8 -2.6 -6.2Q-2.8 -8.65 -1.25 -10.2" />
<path style="fill:#FFFFFF;fill-opacity:1" d="M2.25,4.8L2.25 4.35Q2.25 3.9 2.7 3.35L3.8 3.2Q5 3.1 8.05 4.2L5.95 4.1Q4 4 2.25 4.8" />
</g>
</svg>
