<?xml version="1.0" encoding="utf-8"?>
<svg version="1.1" id="Layer_1"
xmlns="http://www.w3.org/2000/svg"
xmlns:xlink="http://www.w3.org/1999/xlink"
xmlns:author="http://www.sothink.com"
width="119px" height="35px"
xml:space="preserve">
<g id="0" transform="matrix(1, 0, 0, 1, -43.55, -25.65)">
<path style="fill:#009;fill-opacity:1" d="M83.5,35.85L82.7 39.55L82.45 41.45L82.25 42.05L82.05 43L81.45 46.5Q80.85 49.55 81.05 52.75Q81.75 54.5 81.2 56Q80.3 56.7 79.35 56.25L78.55 54.35Q78.5 54.1 78.6 53.95Q77.55 51.1 76.65 48L75.65 43.75L75.3 42.5L75 41.95L75 41.5L74.35 39.6L74.25 38.8L73.05 35.35L72.85 34.7Q71.8 44.6 71.2 54.8L70.5 56L68.95 56.05L68.55 55.6L68.55 54.3Q69.2 53.55 69.15 52.4L69.6 47.35L69.65 45.65L69.9 43.15L70.55 35.7L71.3 30.5Q71.2 28.55 72.45 28.5Q73.45 28.7 73.85 29.3L74.4 31.8L75.15 34.15L76.35 38.7L78.95 48.1L79.7 43.75L80.3 40.8Q81.25 35.75 82.6 30.8L83.35 28.1Q83.55 26.45 84.3 25.7Q85.3 25.5 85.95 26.25L86.25 26.95Q86.45 31.3 87.65 34.9Q87.85 36.75 88.45 38.35L88.95 40.35L89.75 43.15L90.45 45.8L90.9 47.15L91.2 48.45L91.9 51.2L92.7 53.95L93.35 56.85Q93.85 57.65 93.95 58.5L92.85 59.8L92.8 59.8L92.8 59.75Q91.15 59.7 91.35 57.95L90.75 55.05L90.55 54.6L90.4 53.6L90.2 53.15L90.15 52.7L89.45 50.1L89.15 49.3Q88.85 47.5 88.15 45.7L87.25 41.75L86.6 40L86.5 39.1L86.3 38.6L85.9 37.7L84.6 32L83.5 35.85" />
<path style="fill:#990;fill-opacity:1" d="M139.35,27.75L142.45 27.9L143.1 28.6L143.2 29.5Q142.85 30.45 141.3 30.55L140.8 30.45L139.35 30.5L129.3 30.9Q129.45 33.75 129.9 36.8L130 39.2L130.2 40.2L130.4 43.5L131 50.05L130.95 50.85Q131.3 52.65 131.1 54.6Q130.45 55.7 129 55.25L128.65 53.75L128.9 53.05L128.8 52.05L128.65 48.8Q128.15 39.1 126.8 31.05Q121.6 31.65 116.7 30.8Q115.6 29.2 117.15 28.4L118.6 28.6L119.55 28.6L120.1 28.75L121.85 28.65L125.15 28.55L126.95 28.4L127.4 28L128.95 28.25L134.45 28L139.35 27.75" />
<path style="fill:#090;fill-opacity:1" d="M92.65,33.75Q93.15 32.75 94.65 32.8L96.7 32.85L98.75 32.85L100.1 33.1L102.05 33.15L103.75 33.35L105.25 33.3L105.8 33.45L107.55 33.35Q108.5 33.75 108.85 34.65Q108.85 35.8 107.7 36.15L95.25 35.45Q95.15 38.5 95.45 41.5L102.9 41.85L106.1 41.55Q107.45 41.4 108.3 42.05L108.55 42.75Q106.75 45.25 101.85 44.5L100.9 44.5L100.5 44.35L98.15 44.25L95.75 44.15L96.35 48.8Q102 47.85 108.05 48.55Q109.95 48.25 110.5 49.85Q110.3 51 108.9 51.2Q103.3 50.5 97.95 51.1L96.3 51.4Q94.85 52.15 93.85 51.15Q93.7 50.1 93.95 48.85Q93.3 42.4 93 35.7Q92.45 34.7 92.65 33.75" />
<path style="fill:#900;fill-opacity:1" d="M145.6,33.65L146.35 34.05Q149.2 34.25 151.1 35.25L152.4 36.35Q153.2 37.2 153.7 38.3L154.1 40.1L154.05 41.2L154.25 43.75L154.15 44.8L153.9 45.55L153.85 46.4L153.45 48.15L152.5 50.55L151.7 51.75L161.55 55.15L161.95 55.4L162.4 56.3Q162.3 58.2 160.25 57.9L159.9 57.65L151.3 54.4L149.05 54.3Q149.45 55.2 149.35 56.6Q148.25 57.75 146.95 57L146.8 54.95L146.1 54.7Q145.85 53.3 146.35 52.35L145.75 48.05L145.5 47.45L145.15 44.75L144.6 42L144.6 41.1L144.35 40.6L144.25 38.65Q144 37.3 143.9 35.5Q143.8 33.7 145.6 33.65M146.35,36.55L146.35 36.65Q146.8 41.9 147.85 46.5L147.8 46.9L148.3 49.85L148.7 51.4L149.5 50.8L150.65 49.35L151.8 45.8Q152.45 41.85 151.1 38.9L150.6 38.15Q149.05 36.85 146.5 36.55L146.35 36.55" />
<path style="fill:#099;fill-opacity:1" d="M122.6,38.55L122.75 40.7L123.05 42.45Q123.3 47.85 124.6 52.05Q124.9 53.55 125.45 54.7Q125.65 55.65 126.2 56.35L126.2 56.95Q125.4 58.45 123.9 57.6Q122.4 54.3 120.55 51.65L120.1 51.2L117.35 47L116.8 46.4L114.35 42.2Q113.95 43.15 114.25 44.2L114.2 48.35L114.45 49.5L114.55 51.45Q114.6 53.1 115 54.4L114.95 55.1Q114.7 55.25 114.65 55.65Q114 56.2 113 56.15L112.5 55.45Q112.55 53.1 112.2 50.65L112 46.65L112.05 44.95L112.1 40.5Q112 38.2 112.4 36.7L114.15 36.75L115.3 38.75L115.3 39.15Q117.5 43.55 120.4 47.45L120.5 47.85L121.75 49.55L120.95 42.7L120.5 39.45L120.5 38.15L120.15 37.25Q120.1 36 120.5 35.35Q122.4 35 122.6 36.7L122.6 38.55" />
<path style="fill:#909;fill-opacity:1" d="M141.3,42.75Q142.3 43.95 142.8 45.4L143 45.7L143.1 47.55L143.15 48.1L143.3 48.35L143.15 48.9L142.9 50.35L142.05 51.65Q140.45 52.65 138.5 52.3L136.85 51.9L136.7 51.7L135.8 51.35L135.7 51.15L135.1 50.8Q133.95 49.85 133.4 48.55L133 47.75L132.9 46.05L132.7 45.55Q132.25 43 134.2 42.05L139.7 41.85Q140.25 42.25 140.9 42.4L141.3 42.75M135.4,46.95Q136.4 49.4 139.4 49.9L139.95 49.8Q141.5 48.85 140.75 46.45L140.4 45.6L139.5 44.7L139.35 44.45Q138.6 44 137.5 43.9L135.8 44.05L135.35 45.05Q136.3 46 135.4 46.95" />
<path style="fill:#900;fill-opacity:1" d="M47.15,36.45L47.3 56.2Q47.3 57.8 45.75 57.8Q44.2 57.8 44.2 56.25L44 36.45Q44 34.9 45.55 34.9Q47.15 34.9 47.15 36.45M45.5,27.5Q47.5 27.5 47.5 29.45Q47.5 31.45 45.55 31.45Q43.55 31.45 43.55 29.5Q43.55 27.5 45.5 27.5" />
<path style="fill:#099;fill-opacity:1" d="M63.65,44.8Q63.65 46.35 62.1 46.35L54.25 46.45Q52.7 46.45 52.7 44.9Q52.7 43.3 54.25 43.3L62.05 43.25Q63.6 43.25 63.65 44.8" />
</g>
</svg>
