<?xml version="1.0" encoding="utf-8"?>
<svg version="1.1" id="Layer_1"
xmlns="http://www.w3.org/2000/svg"
xmlns:xlink="http://www.w3.org/1999/xlink"
xmlns:author="http://www.sothink.com"
width="25px" height="40px"
xml:space="preserve">
<g id="13" transform="matrix(1, 0, 0, 1, 12.45, 19.75)">
<path style="fill:#F8D754;fill-opacity:1" d="M-2.6,-6.4L-4.15 -7.4L-11.9 -3.4L-5.8 -9.8L-12.45 -10.5L-5.55 -12.7L-9.4 -19.75L-3.1 -13.7L-0.7 -18.5L-0.8 -13.6L4.85 -17.45L1 -11.85L6.8 -9.8L1.4 -9L4.95 -5.65L0.1 -7.3L-0.25 -1.65L-2.1 -6.1L-2.6 -6.4M-1.2,-0.55L0.9 -1.5L2.25 1.4L4 1.3Q5.65 1.4 7.75 2.55Q9.95 3.7 11.6 7Q13.25 10.95 11.75 14.15Q10.3 17.45 7.1 18.9Q3.95 20.35 0.5 19.3Q-2.9 18.35 -4.8 14.45Q-6.2 11.05 -5.7 8.7Q-5.15 6.3 -4.05 5L-2.85 3.75L-4.15 0.8L-1.2 -0.55M2.7,3.35Q2.25 3.9 2.25 4.35L2.25 4.8Q4 4 5.95 4.1L8.05 4.2Q5 3.1 3.8 3.2L2.7 3.35" />
<path style="fill:#FFFFFF;fill-opacity:1" d="M3.8,3.2Q5 3.1 8.05 4.2L5.95 4.1Q4 4 2.25 4.8L2.25 4.35Q2.25 3.9 2.7 3.35L3.8 3.2" />
<path style="fill:none;stroke-width:0.7;stroke-linecap:round;stroke-linejoin:round;stroke-miterlimit:3;stroke:#F8D754;stroke-opacity:1" d="M-2.6,-6.4L-2.6 -6.2Q-2.5 -3.8 -1.7 -1.75L-1.2 -0.55L-0.8 0.35M-2.6,-6.4L-2.4 -8.35L-1.25 -10.2" />
</g>
</svg>
